<svg width="640" height="100" viewBox="0 0 640 100" fill="none" xmlns="http://www.w3.org/2000/svg">
<path d="M0.12 99.744V0.303995H34.968V99.744H0.12ZM32.768 20.456H21.592L4.432 81H15.608L32.768 20.456ZM33.2059 99.744V0.303995H68.0539V99.744H33.2059ZM65.8539 20.456H54.6779L37.5179 81H48.6939L65.8539 20.456ZM66.2919 99.744V0.303995H119.092V99.744H66.2919ZM95.2439 81H117.156V72.464H111.876V54.248C111.876 49.5547 110.497 46.0933 107.74 43.864C104.983 41.6347 101.727 40.52 97.9719 40.52C92.1052 40.52 87.8519 42.808 85.2119 47.384V20.456H68.5799V29.08H73.8599V72.464H68.5799V81H90.4919V72.464H85.2119V57.768C85.3292 55.1867 86.0919 53.104 87.4999 51.52C88.9665 49.936 90.9905 49.144 93.5719 49.144C95.8012 49.144 97.5025 49.8773 98.6759 51.344C99.9079 52.8107 100.524 55.2453 100.524 58.648V72.464H95.2439V81ZM117.425 99.744V0.303995H163.801V99.744H117.425ZM124.289 44.128L122.529 54.424L131.593 55.392L133.089 49.76C134.027 49.2907 134.966 48.9973 135.905 48.88C136.902 48.704 137.987 48.616 139.161 48.616C142.387 48.616 144.265 49.584 144.793 51.52C145.379 53.456 145.673 55.4507 145.673 57.504V58.824C143.854 58.5893 141.683 58.472 139.161 58.472C134.643 58.472 130.419 59.264 126.489 60.848C122.617 62.432 120.681 65.6587 120.681 70.528C120.681 74.6933 122.001 77.6267 124.641 79.328C127.281 81.0293 130.038 81.88 132.913 81.88C136.139 81.88 138.779 81.0587 140.833 79.416C142.945 77.7733 144.558 75.9547 145.673 73.96V74.048C146.259 79.2693 149.163 81.88 154.385 81.88C156.849 81.88 159.225 81.264 161.513 80.032L161.425 74.048C160.838 74.224 160.281 74.312 159.753 74.312C157.934 74.312 157.025 73.2853 157.025 71.232V53.984C157.025 49.4667 155.47 46.0933 152.361 43.864C149.251 41.6347 145.555 40.52 141.273 40.52C138.046 40.52 135.259 40.784 132.913 41.312C130.625 41.7813 127.75 42.72 124.289 44.128ZM145.673 64.808C145.379 67.9173 144.353 70.2053 142.593 71.672C140.891 73.08 139.043 73.784 137.049 73.784C135.347 73.784 134.145 73.344 133.441 72.464C132.737 71.584 132.385 70.4987 132.385 69.208C132.385 67.0373 133.147 65.6 134.673 64.896C136.198 64.1333 137.958 63.752 139.953 63.752C140.891 63.752 141.83 63.8107 142.769 63.928C143.766 64.0453 144.734 64.1627 145.673 64.28V64.808ZM161.764 99.744V0.303995H203.916V99.744H161.764ZM200.924 68.856C200.924 65.0427 199.751 62.344 197.404 60.76C195.116 59.1173 192.418 58.032 189.308 57.504C186.258 56.976 183.559 56.448 181.212 55.92C178.924 55.3333 177.78 54.1893 177.78 52.488C177.78 51.1973 178.279 50.2587 179.276 49.672C180.332 49.0267 181.594 48.704 183.06 48.704C185.29 48.704 187.372 49.0267 189.308 49.672L190.012 55.216L198.812 54.248L197.844 44.128C193.21 41.7227 188.252 40.52 182.972 40.52C178.924 40.52 174.994 41.3707 171.18 43.072C167.426 44.7147 165.548 47.9707 165.548 52.84C165.548 56.7707 166.751 59.5573 169.156 61.2C171.562 62.8427 174.348 63.928 177.516 64.456C180.684 64.984 183.471 65.512 185.876 66.04C188.282 66.568 189.484 67.6827 189.484 69.384C189.484 70.792 188.692 71.848 187.108 72.552C185.524 73.256 183.647 73.608 181.476 73.608C180.89 73.608 180.01 73.5787 178.836 73.52C177.663 73.4027 176.548 73.168 175.492 72.816V67.888L166.692 66.92L165.108 78.008C167.748 79.3573 170.506 80.3547 173.38 81C176.314 81.5867 179.218 81.88 182.092 81.88C187.666 81.88 192.183 80.824 195.644 78.712C199.164 76.5413 200.924 73.256 200.924 68.856ZM201.987 99.744V0.303995H254.787V99.744H201.987ZM230.939 81H252.851V72.464H247.571V54.248C247.571 49.5547 246.193 46.0933 243.435 43.864C240.678 41.6347 237.422 40.52 233.667 40.52C227.801 40.52 223.547 42.808 220.907 47.384V20.456H204.275V29.08H209.555V72.464H204.275V81H226.187V72.464H220.907V57.768C221.025 55.1867 221.787 53.104 223.195 51.52C224.662 49.936 226.686 49.144 229.267 49.144C231.497 49.144 233.198 49.8773 234.371 51.344C235.603 52.8107 236.219 55.2453 236.219 58.648V72.464H230.939V81ZM285.768 20.456L268.608 81H257.432L274.592 20.456H285.768ZM337.07 81H315.158V72.464H320.438V58.648C320.438 55.2453 319.822 52.8107 318.59 51.344C317.417 49.8773 315.715 49.144 313.486 49.144C310.905 49.144 308.881 49.936 307.414 51.52C306.006 53.104 305.243 55.1867 305.126 57.768V72.464H310.406V81H288.494V72.464H293.774V29.08H288.494V20.456H305.126V47.384C307.766 42.808 312.019 40.52 317.886 40.52C321.641 40.52 324.897 41.6347 327.654 43.864C330.411 46.0933 331.79 49.5547 331.79 54.248V72.464H337.07V81ZM388.467 81H371.395V74.928C368.755 79.504 364.501 81.792 358.635 81.792C354.88 81.792 351.624 80.6773 348.867 78.448C346.109 76.2187 344.731 72.7573 344.731 68.064V49.848H339.451V41.312H356.083V63.664C356.083 67.1253 356.64 69.5893 357.755 71.056C358.928 72.464 360.629 73.168 362.859 73.168C365.557 73.168 367.64 72.288 369.107 70.528C370.632 68.768 371.395 66.5093 371.395 63.752V49.848H364.971V41.312H382.747V72.464H388.467V81ZM440.823 81H418.911V72.464H424.191V58.648C424.191 55.2453 423.605 52.8107 422.431 51.344C421.317 49.8773 419.645 49.144 417.415 49.144C414.717 49.144 412.634 49.9947 411.167 51.696C409.701 53.3387 408.938 55.5093 408.879 58.208V72.464H414.159V81H392.247V72.464H397.527V49.936H391.807V41.312H408.879V47.384C411.519 42.808 415.773 40.52 421.639 40.52C425.394 40.52 428.65 41.6347 431.407 43.864C434.165 46.0933 435.543 49.5547 435.543 54.248V72.464H440.823V81ZM477.587 68.68C477.001 73.256 475.417 76.6 472.835 78.712C470.254 80.824 466.91 81.88 462.803 81.88C458.403 81.88 454.825 80.7947 452.067 78.624C449.369 76.3947 448.019 73.2267 448.019 69.12V49.408H442.387V41.312H448.019V29.256H459.371V41.312H473.627V49.408H459.371V67.184C459.371 70.6453 460.955 72.376 464.123 72.376C464.827 72.376 465.766 72.0827 466.939 71.496C468.171 70.8507 468.963 69.0613 469.315 66.128L477.587 68.68ZM517.666 68.504C517.373 72.024 515.642 75.1333 512.474 77.832C509.306 80.5307 504.877 81.88 499.186 81.88C493.261 81.88 488.362 80.208 484.49 76.864C480.677 73.52 478.77 68.5333 478.77 61.904C478.77 55.8027 480.501 50.728 483.962 46.68C487.482 42.5733 492.381 40.52 498.658 40.52C504.173 40.52 508.631 42.104 512.034 45.272C515.495 48.44 517.255 52.6053 517.314 57.768C517.314 59.704 517.109 61.6107 516.698 63.488H490.65C491.295 69.7653 494.405 72.904 499.978 72.904C503.029 72.904 505.082 72.1707 506.138 70.704C507.253 69.2373 507.927 67.9173 508.162 66.744L517.666 68.504ZM505.61 56.888C505.845 54.8933 505.405 53.016 504.29 51.256C503.234 49.496 501.357 48.616 498.658 48.616C496.311 48.616 494.493 49.3787 493.202 50.904C491.911 52.4293 491.09 54.424 490.738 56.888H505.61ZM547.093 40.784C548.208 40.784 549.44 40.96 550.789 41.312C552.197 41.6053 553.576 42.1627 554.925 42.984L556.685 56.888L548.061 57.856L546.565 51.08C545.392 50.376 544.365 50.024 543.485 50.024C542.194 50.024 541.05 50.5227 540.053 51.52C539.114 52.5173 538.645 53.984 538.645 55.92V72.464H545.685V81H522.013V72.464H527.293V49.936H521.573V41.312H537.765V48.88C538.41 46.592 539.437 44.6853 540.845 43.16C542.312 41.576 544.394 40.784 547.093 40.784ZM596.585 68.856C596.585 73.256 594.825 76.5413 591.305 78.712C587.843 80.824 583.326 81.88 577.753 81.88C574.878 81.88 571.974 81.5867 569.041 81C566.166 80.3547 563.409 79.3573 560.769 78.008L562.353 66.92L571.153 67.888V72.816C572.209 73.168 573.323 73.4027 574.497 73.52C575.67 73.5787 576.55 73.608 577.137 73.608C579.307 73.608 581.185 73.256 582.769 72.552C584.353 71.848 585.145 70.792 585.145 69.384C585.145 67.6827 583.942 66.568 581.537 66.04C579.131 65.512 576.345 64.984 573.177 64.456C570.009 63.928 567.222 62.8427 564.817 61.2C562.411 59.5573 561.209 56.7707 561.209 52.84C561.209 47.9707 563.086 44.7147 566.841 43.072C570.654 41.3707 574.585 40.52 578.633 40.52C583.913 40.52 588.87 41.7227 593.505 44.128L594.473 54.248L585.673 55.216L584.969 49.672C583.033 49.0267 580.95 48.704 578.721 48.704C577.254 48.704 575.993 49.0267 574.937 49.672C573.939 50.2587 573.441 51.1973 573.441 52.488C573.441 54.1893 574.585 55.3333 576.873 55.92C579.219 56.448 581.918 56.976 584.969 57.504C588.078 58.032 590.777 59.1173 593.065 60.76C595.411 62.344 596.585 65.0427 596.585 68.856ZM601.775 86.984H639.791V94.464H601.775V86.984Z" fill="#FAEB92"/>
</svg>
