<svg width="121" height="62" viewBox="0 0 121 62" fill="none" xmlns="http://www.w3.org/2000/svg">
<path d="M18.392 5.896L15.488 41.448L14.432 55.528L13.024 55.352L14.08 41.272L16.984 5.72L18.392 5.896ZM38.544 5.896L37.488 19.976L34.584 55.528L33.176 55.352L36.08 19.8L37.136 5.72L38.544 5.896ZM45.408 42.064H6.16V40.656H45.408V42.064ZM45.408 20.592H6.16V19.184H45.408V20.592ZM0.176 46.288L5.632 40.832C5.74933 40.7147 5.808 40.8907 5.808 41.36C5.808 41.8293 5.74933 42.0053 5.632 41.888L0.176 36.344L1.232 35.288L6.688 40.832C6.80533 41.008 6.864 41.2133 6.864 41.448C6.864 41.624 6.80533 41.7707 6.688 41.888L1.232 47.344L0.176 46.288ZM0.176 24.904L5.632 19.36C5.74933 19.2427 5.808 19.4187 5.808 19.888C5.808 20.3573 5.74933 20.5333 5.632 20.416L0.176 14.96L1.232 13.904L6.688 19.36C6.80533 19.4773 6.864 19.6533 6.864 19.888C6.864 20.064 6.80533 20.24 6.688 20.416L1.232 25.96L0.176 24.904ZM51.392 36.344L45.936 41.888C45.8187 42.0053 45.76 41.8293 45.76 41.36C45.76 40.8907 45.8187 40.7147 45.936 40.832L51.392 46.288L50.336 47.344L44.88 41.888C44.7627 41.7707 44.704 41.624 44.704 41.448C44.704 41.2133 44.7627 41.008 44.88 40.832L50.336 35.288L51.392 36.344ZM51.392 14.96L45.936 20.416C45.8187 20.5333 45.76 20.3573 45.76 19.888C45.76 19.4187 45.8187 19.2427 45.936 19.36L51.392 24.904L50.336 25.96L44.88 20.416C44.7627 20.24 44.704 20.064 44.704 19.888C44.704 19.6533 44.7627 19.4773 44.88 19.36L50.336 13.904L51.392 14.96ZM13.112 0.175998L18.216 5.28C18.3333 5.39733 18.1573 5.456 17.688 5.456C17.2773 5.456 17.1307 5.39733 17.248 5.28L23.144 0.175998L24.024 1.232L18.128 6.336C18.0107 6.45333 17.8347 6.512 17.6 6.512C17.424 6.512 17.2773 6.45333 17.16 6.336L12.056 1.232L13.112 0.175998ZM33.264 0.175998L38.368 5.28C38.4853 5.39733 38.3093 5.456 37.84 5.456C37.4293 5.456 37.2827 5.39733 37.4 5.28L43.296 0.175998L44.176 1.232L38.28 6.336C38.1627 6.45333 37.9867 6.512 37.752 6.512C37.576 6.512 37.4293 6.45333 37.312 6.336L32.208 1.232L33.264 0.175998ZM38.456 61.072L33.352 55.968C33.2347 55.8507 33.3813 55.792 33.792 55.792C34.2613 55.792 34.4373 55.8507 34.32 55.968L28.424 61.072L27.544 60.016L33.44 54.912C33.5573 54.7947 33.704 54.736 33.88 54.736C34.1147 54.736 34.2907 54.7947 34.408 54.912L39.512 60.016L38.456 61.072ZM18.304 61.072L13.2 55.968C13.0827 55.8507 13.2293 55.792 13.64 55.792C14.1093 55.792 14.2853 55.8507 14.168 55.968L8.272 61.072L7.392 60.016L13.288 54.912C13.4053 54.7947 13.552 54.736 13.728 54.736C13.9627 54.736 14.1387 54.7947 14.256 54.912L19.36 60.016L18.304 61.072ZM22.968 14.96L16.984 20.416C17.0427 20.416 17.0427 20.416 16.984 20.416L11.088 25.96L10.208 24.904L16.104 19.36L22.088 13.904L22.968 14.96ZM12.056 13.992L22.176 24.992L21.12 25.872L11 14.872L12.056 13.992ZM43.12 14.96L31.24 25.96L30.36 24.904L42.24 13.904L43.12 14.96ZM32.208 13.992L37.312 19.448L42.328 24.992L41.272 25.872L36.256 20.328L31.152 14.872L32.208 13.992ZM21.208 36.344L9.328 47.344L8.448 46.288L20.328 35.288L21.208 36.344ZM10.296 35.376L15.312 40.92L20.416 46.376L19.36 47.256L14.256 41.8L9.24 36.256L10.296 35.376ZM41.36 36.344L35.464 41.888L29.48 47.344L28.6 46.288L34.584 40.832C34.584 40.832 34.5547 40.832 34.496 40.832C34.496 40.832 34.5253 40.832 34.584 40.832L40.48 35.288L41.36 36.344ZM30.448 35.376L40.568 46.376L39.512 47.256L29.392 36.256L30.448 35.376ZM0.704 47.52C0.528 47.52 0.352 47.4613 0.176 47.344C0.0586667 47.168 0 46.992 0 46.816V35.816C0 35.64 0.0586667 35.4933 0.176 35.376C0.352 35.2 0.528 35.112 0.704 35.112H9.768L9.064 35.728L9.944 25.344L10.648 26.136H0.704C0.528 26.136 0.352 26.0773 0.176 25.96C0.0586667 25.784 0 25.608 0 25.432V14.432C0 14.256 0.0586667 14.1093 0.176 13.992C0.352 13.816 0.528 13.728 0.704 13.728H11.528L10.824 14.344L11.88 0.615997C11.88 0.44 11.9387 0.293333 12.056 0.175998C12.232 0.0586659 12.408 0 12.584 0H23.584C23.8187 0 23.9947 0.0879989 24.112 0.263997C24.2293 0.381332 24.288 0.557333 24.288 0.792L23.232 14.52L22.528 13.728H31.68L30.976 14.344L32.032 0.615997C32.032 0.44 32.0907 0.293333 32.208 0.175998C32.384 0.0586659 32.56 0 32.736 0H43.736C43.9707 0 44.1467 0.0879989 44.264 0.263997C44.3813 0.381332 44.44 0.557333 44.44 0.792L43.384 14.52L42.68 13.728H50.864C51.04 13.728 51.1867 13.816 51.304 13.992C51.48 14.1093 51.568 14.256 51.568 14.432V25.432C51.568 25.608 51.48 25.784 51.304 25.96C51.1867 26.0773 51.04 26.136 50.864 26.136H41.8L42.504 25.52L41.624 35.904L40.92 35.112H50.864C51.04 35.112 51.1867 35.2 51.304 35.376C51.48 35.4933 51.568 35.64 51.568 35.816V46.816C51.568 46.992 51.48 47.168 51.304 47.344C51.1867 47.4613 51.04 47.52 50.864 47.52H40.04L40.744 46.904L39.688 60.632C39.688 60.808 39.6 60.9547 39.424 61.072C39.3067 61.1893 39.16 61.248 38.984 61.248H27.984C27.7493 61.248 27.5733 61.16 27.456 60.984C27.3387 60.8667 27.28 60.6907 27.28 60.456L28.336 46.728L29.04 47.52H19.888L20.592 46.904L19.536 60.632C19.536 60.808 19.448 60.9547 19.272 61.072C19.1547 61.1893 19.008 61.248 18.832 61.248H7.832C7.59733 61.248 7.42133 61.16 7.304 60.984C7.18667 60.8667 7.128 60.6907 7.128 60.456L8.184 46.728L8.888 47.52H0.704ZM21.472 35.904L20.768 35.112H29.92L29.216 35.728L30.096 25.344L30.8 26.136H21.648L22.352 25.52L21.472 35.904ZM0.704 46.112H8.888C9.12267 46.112 9.29867 46.2 9.416 46.376C9.53333 46.4933 9.592 46.6693 9.592 46.904L8.536 60.632L7.832 59.84H18.832L18.128 60.456L19.184 46.728C19.184 46.552 19.2427 46.4053 19.36 46.288C19.536 46.1707 19.712 46.112 19.888 46.112H29.04C29.2747 46.112 29.4507 46.2 29.568 46.376C29.6853 46.4933 29.744 46.6693 29.744 46.904L28.688 60.632L27.984 59.84H38.984L38.28 60.456L39.336 46.728C39.336 46.552 39.3947 46.4053 39.512 46.288C39.688 46.1707 39.864 46.112 40.04 46.112H50.864L50.16 46.816V35.816L50.864 36.52H40.92C40.6853 36.52 40.5093 36.4613 40.392 36.344C40.2747 36.168 40.216 35.9627 40.216 35.728L41.096 25.344C41.096 25.168 41.1547 25.0213 41.272 24.904C41.448 24.7867 41.624 24.728 41.8 24.728H50.864L50.16 25.432V14.432L50.864 15.136H42.68C42.4453 15.136 42.2693 15.0773 42.152 14.96C42.0347 14.784 41.976 14.5787 41.976 14.344L43.032 0.615997L43.736 1.408H32.736L33.44 0.792L32.384 14.52C32.384 14.696 32.296 14.8427 32.12 14.96C32.0027 15.0773 31.856 15.136 31.68 15.136H22.528C22.2933 15.136 22.1173 15.0773 22 14.96C21.8827 14.784 21.824 14.5787 21.824 14.344L22.88 0.615997L23.584 1.408H12.584L13.288 0.792L12.232 14.52C12.232 14.696 12.144 14.8427 11.968 14.96C11.8507 15.0773 11.704 15.136 11.528 15.136H0.704L1.408 14.432V25.432L0.704 24.728H10.648C10.8827 24.728 11.0587 24.816 11.176 24.992C11.2933 25.1093 11.352 25.2853 11.352 25.52L10.472 35.904C10.472 36.08 10.384 36.2267 10.208 36.344C10.0907 36.4613 9.944 36.52 9.768 36.52H0.704L1.408 35.816V46.816L0.704 46.112ZM20.064 35.728L20.944 25.344C20.944 25.168 21.0027 25.0213 21.12 24.904C21.296 24.7867 21.472 24.728 21.648 24.728H30.8C31.0347 24.728 31.2107 24.816 31.328 24.992C31.4453 25.1093 31.504 25.2853 31.504 25.52L30.624 35.904C30.624 36.08 30.536 36.2267 30.36 36.344C30.2427 36.4613 30.096 36.52 29.92 36.52H20.768C20.5333 36.52 20.3573 36.4613 20.24 36.344C20.1227 36.168 20.064 35.9627 20.064 35.728Z" fill="#FAEB92"/>
<path d="M105.66 60.544H83.7485V52.008H89.0285V38.192C89.0285 34.7893 88.4125 32.3547 87.1805 30.888C86.0072 29.4213 84.3058 28.688 82.0765 28.688C79.4952 28.688 77.4712 29.48 76.0045 31.064C74.5965 32.648 73.8338 34.7307 73.7165 37.312V52.008H78.9965V60.544H57.0845V52.008H62.3645V8.624H57.0845V0H73.7165V26.928C76.3565 22.352 80.6098 20.064 86.4765 20.064C90.2312 20.064 93.4872 21.1787 96.2445 23.408C99.0018 25.6373 100.381 29.0987 100.381 33.792V52.008H105.66V60.544Z" fill="#FAEB92"/>
<path d="M111.825 60.544V51.04H120.361V60.544H111.825Z" fill="#FAEB92"/>
<path d="M22.2225 25.2772L30.203 25.8352L29.5055 35.8108L21.525 35.2528L22.2225 25.2772Z" fill="#FAEB92"/>
</svg>
