<svg width="408" height="74" viewBox="0 0 408 74" fill="none" xmlns="http://www.w3.org/2000/svg">
<path d="M17.974 7.138L15.136 41.882L14.104 55.642L12.728 55.47L13.76 41.71L16.598 6.966L17.974 7.138ZM37.668 7.138L36.636 20.898L33.798 55.642L32.422 55.47L35.26 20.726L36.292 6.966L37.668 7.138ZM44.376 42.484H6.02V41.108H44.376V42.484ZM44.376 21.5H6.02V20.124H44.376V21.5ZM0.172 46.612L5.504 41.28C5.61867 41.1653 5.676 41.3373 5.676 41.796C5.676 42.2547 5.61867 42.4267 5.504 42.312L0.172 36.894L1.204 35.862L6.536 41.28C6.65067 41.452 6.708 41.6527 6.708 41.882C6.708 42.054 6.65067 42.1973 6.536 42.312L1.204 47.644L0.172 46.612ZM0.172 25.714L5.504 20.296C5.61867 20.1813 5.676 20.3533 5.676 20.812C5.676 21.2707 5.61867 21.4427 5.504 21.328L0.172 15.996L1.204 14.964L6.536 20.296C6.65067 20.4107 6.708 20.5827 6.708 20.812C6.708 20.984 6.65067 21.156 6.536 21.328L1.204 26.746L0.172 25.714ZM50.224 36.894L44.892 42.312C44.7773 42.4267 44.72 42.2547 44.72 41.796C44.72 41.3373 44.7773 41.1653 44.892 41.28L50.224 46.612L49.192 47.644L43.86 42.312C43.7453 42.1973 43.688 42.054 43.688 41.882C43.688 41.6527 43.7453 41.452 43.86 41.28L49.192 35.862L50.224 36.894ZM50.224 15.996L44.892 21.328C44.7773 21.4427 44.72 21.2707 44.72 20.812C44.72 20.3533 44.7773 20.1813 44.892 20.296L50.224 25.714L49.192 26.746L43.86 21.328C43.7453 21.156 43.688 20.984 43.688 20.812C43.688 20.5827 43.7453 20.4107 43.86 20.296L49.192 14.964L50.224 15.996ZM12.814 1.548L17.802 6.536C17.9167 6.65067 17.7447 6.708 17.286 6.708C16.8847 6.708 16.7413 6.65067 16.856 6.536L22.618 1.548L23.478 2.58L17.716 7.568C17.6013 7.68267 17.4293 7.74 17.2 7.74C17.028 7.74 16.8847 7.68267 16.77 7.568L11.782 2.58L12.814 1.548ZM32.508 1.548L37.496 6.536C37.6107 6.65067 37.4387 6.708 36.98 6.708C36.5787 6.708 36.4353 6.65067 36.55 6.536L42.312 1.548L43.172 2.58L37.41 7.568C37.2953 7.68267 37.1233 7.74 36.894 7.74C36.722 7.74 36.5787 7.68267 36.464 7.568L31.476 2.58L32.508 1.548ZM37.582 61.06L32.594 56.072C32.4793 55.9573 32.6227 55.9 33.024 55.9C33.4827 55.9 33.6547 55.9573 33.54 56.072L27.778 61.06L26.918 60.028L32.68 55.04C32.7947 54.9253 32.938 54.868 33.11 54.868C33.3393 54.868 33.5113 54.9253 33.626 55.04L38.614 60.028L37.582 61.06ZM17.888 61.06L12.9 56.072C12.7853 55.9573 12.9287 55.9 13.33 55.9C13.7887 55.9 13.9607 55.9573 13.846 56.072L8.084 61.06L7.224 60.028L12.986 55.04C13.1007 54.9253 13.244 54.868 13.416 54.868C13.6453 54.868 13.8173 54.9253 13.932 55.04L18.92 60.028L17.888 61.06ZM22.446 15.996L16.598 21.328C16.6553 21.328 16.6553 21.328 16.598 21.328L10.836 26.746L9.976 25.714L15.738 20.296L21.586 14.964L22.446 15.996ZM11.782 15.05L21.672 25.8L20.64 26.66L10.75 15.91L11.782 15.05ZM42.14 15.996L30.53 26.746L29.67 25.714L41.28 14.964L42.14 15.996ZM31.476 15.05L36.464 20.382L41.366 25.8L40.334 26.66L35.432 21.242L30.444 15.91L31.476 15.05ZM20.726 36.894L9.116 47.644L8.256 46.612L19.866 35.862L20.726 36.894ZM10.062 35.948L14.964 41.366L19.952 46.698L18.92 47.558L13.932 42.226L9.03 36.808L10.062 35.948ZM40.42 36.894L34.658 42.312L28.81 47.644L27.95 46.612L33.798 41.28C33.798 41.28 33.7693 41.28 33.712 41.28C33.712 41.28 33.7407 41.28 33.798 41.28L39.56 35.862L40.42 36.894ZM29.756 35.948L39.646 46.698L38.614 47.558L28.724 36.808L29.756 35.948ZM0.688 47.816C0.516 47.816 0.344 47.7587 0.172 47.644C0.0573333 47.472 0 47.3 0 47.128V36.378C0 36.206 0.0573333 36.0627 0.172 35.948C0.344 35.776 0.516 35.69 0.688 35.69H9.546L8.858 36.292L9.718 26.144L10.406 26.918H0.688C0.516 26.918 0.344 26.8607 0.172 26.746C0.0573333 26.574 0 26.402 0 26.23V15.48C0 15.308 0.0573333 15.1647 0.172 15.05C0.344 14.878 0.516 14.792 0.688 14.792H11.266L10.578 15.394L11.61 1.978C11.61 1.806 11.6673 1.66267 11.782 1.548C11.954 1.43333 12.126 1.376 12.298 1.376H23.048C23.2773 1.376 23.4493 1.462 23.564 1.634C23.6787 1.74867 23.736 1.92067 23.736 2.15L22.704 15.566L22.016 14.792H30.96L30.272 15.394L31.304 1.978C31.304 1.806 31.3613 1.66267 31.476 1.548C31.648 1.43333 31.82 1.376 31.992 1.376H42.742C42.9713 1.376 43.1433 1.462 43.258 1.634C43.3727 1.74867 43.43 1.92067 43.43 2.15L42.398 15.566L41.71 14.792H49.708C49.88 14.792 50.0233 14.878 50.138 15.05C50.31 15.1647 50.396 15.308 50.396 15.48V26.23C50.396 26.402 50.31 26.574 50.138 26.746C50.0233 26.8607 49.88 26.918 49.708 26.918H40.85L41.538 26.316L40.678 36.464L39.99 35.69H49.708C49.88 35.69 50.0233 35.776 50.138 35.948C50.31 36.0627 50.396 36.206 50.396 36.378V47.128C50.396 47.3 50.31 47.472 50.138 47.644C50.0233 47.7587 49.88 47.816 49.708 47.816H39.13L39.818 47.214L38.786 60.63C38.786 60.802 38.7 60.9453 38.528 61.06C38.4133 61.1747 38.27 61.232 38.098 61.232H27.348C27.1187 61.232 26.9467 61.146 26.832 60.974C26.7173 60.8593 26.66 60.6873 26.66 60.458L27.692 47.042L28.38 47.816H19.436L20.124 47.214L19.092 60.63C19.092 60.802 19.006 60.9453 18.834 61.06C18.7193 61.1747 18.576 61.232 18.404 61.232H7.654C7.42467 61.232 7.25267 61.146 7.138 60.974C7.02333 60.8593 6.966 60.6873 6.966 60.458L7.998 47.042L8.686 47.816H0.688ZM20.984 36.464L20.296 35.69H29.24L28.552 36.292L29.412 26.144L30.1 26.918H21.156L21.844 26.316L20.984 36.464ZM0.688 46.44H8.686C8.91533 46.44 9.08733 46.526 9.202 46.698C9.31667 46.8127 9.374 46.9847 9.374 47.214L8.342 60.63L7.654 59.856H18.404L17.716 60.458L18.748 47.042C18.748 46.87 18.8053 46.7267 18.92 46.612C19.092 46.4973 19.264 46.44 19.436 46.44H28.38C28.6093 46.44 28.7813 46.526 28.896 46.698C29.0107 46.8127 29.068 46.9847 29.068 47.214L28.036 60.63L27.348 59.856H38.098L37.41 60.458L38.442 47.042C38.442 46.87 38.4993 46.7267 38.614 46.612C38.786 46.4973 38.958 46.44 39.13 46.44H49.708L49.02 47.128V36.378L49.708 37.066H39.99C39.7607 37.066 39.5887 37.0087 39.474 36.894C39.3593 36.722 39.302 36.5213 39.302 36.292L40.162 26.144C40.162 25.972 40.2193 25.8287 40.334 25.714C40.506 25.5993 40.678 25.542 40.85 25.542H49.708L49.02 26.23V15.48L49.708 16.168H41.71C41.4807 16.168 41.3087 16.1107 41.194 15.996C41.0793 15.824 41.022 15.6233 41.022 15.394L42.054 1.978L42.742 2.752H31.992L32.68 2.15L31.648 15.566C31.648 15.738 31.562 15.8813 31.39 15.996C31.2753 16.1107 31.132 16.168 30.96 16.168H22.016C21.7867 16.168 21.6147 16.1107 21.5 15.996C21.3853 15.824 21.328 15.6233 21.328 15.394L22.36 1.978L23.048 2.752H12.298L12.986 2.15L11.954 15.566C11.954 15.738 11.868 15.8813 11.696 15.996C11.5813 16.1107 11.438 16.168 11.266 16.168H0.688L1.376 15.48V26.23L0.688 25.542H10.406C10.6353 25.542 10.8073 25.628 10.922 25.8C11.0367 25.9147 11.094 26.0867 11.094 26.316L10.234 36.464C10.234 36.636 10.148 36.7793 9.976 36.894C9.86133 37.0087 9.718 37.066 9.546 37.066H0.688L1.376 36.378V47.128L0.688 46.44ZM19.608 36.292L20.468 26.144C20.468 25.972 20.5253 25.8287 20.64 25.714C20.812 25.5993 20.984 25.542 21.156 25.542H30.1C30.3293 25.542 30.5013 25.628 30.616 25.8C30.7307 25.9147 30.788 26.0867 30.788 26.316L29.928 36.464C29.928 36.636 29.842 36.7793 29.67 36.894C29.5553 37.0087 29.412 37.066 29.24 37.066H20.296C20.0667 37.066 19.8947 37.0087 19.78 36.894C19.6653 36.722 19.608 36.5213 19.608 36.292Z" fill="#FAEB92"/>
<path d="M104.395 60.544H82.4831V52.008H87.7631V38.192C87.7631 34.7893 87.1471 32.3547 85.9151 30.888C84.7418 29.4213 83.0405 28.688 80.8111 28.688C78.2298 28.688 76.2058 29.48 74.7391 31.064C73.3311 32.648 72.5685 34.7307 72.4511 37.312V52.008H77.7311V60.544H55.8191V52.008H61.0991V8.624H55.8191V0H72.4511V26.928C75.0911 22.352 79.3445 20.064 85.2111 20.064C88.9658 20.064 92.2218 21.1787 94.9791 23.408C97.7365 25.6373 99.1151 29.0987 99.1151 33.792V52.008H104.395V60.544Z" fill="#FAEB92"/>
<path d="M155.792 60.544H138.72V54.472C136.08 59.048 131.827 61.336 125.96 61.336C122.205 61.336 118.949 60.2213 116.192 57.992C113.435 55.7627 112.056 52.3013 112.056 47.608V29.392H106.776V20.856H123.408V43.208C123.408 46.6693 123.965 49.1333 125.08 50.6C126.253 52.008 127.955 52.712 130.184 52.712C132.883 52.712 134.965 51.832 136.432 50.072C137.957 48.312 138.72 46.0533 138.72 43.296V29.392H132.296V20.856H150.072V52.008H155.792V60.544Z" fill="#FAEB92"/>
<path d="M208.148 60.544H186.236V52.008H191.516V38.192C191.516 34.7893 190.93 32.3547 189.757 30.888C188.642 29.4213 186.97 28.688 184.741 28.688C182.042 28.688 179.959 29.5387 178.493 31.24C177.026 32.8827 176.263 35.0533 176.204 37.752V52.008H181.484V60.544H159.572V52.008H164.852V29.48H159.133V20.856H176.204V26.928C178.844 22.352 183.098 20.064 188.964 20.064C192.719 20.064 195.975 21.1787 198.732 23.408C201.49 25.6373 202.868 29.0987 202.868 33.792V52.008H208.148V60.544Z" fill="#FAEB92"/>
<path d="M244.913 48.224C244.326 52.8 242.742 56.144 240.161 58.256C237.579 60.368 234.235 61.424 230.129 61.424C225.729 61.424 222.15 60.3387 219.393 58.168C216.694 55.9387 215.345 52.7707 215.345 48.664V28.952H209.713V20.856H215.345V8.8H226.697V20.856H240.953V28.952H226.697V46.728C226.697 50.1893 228.281 51.92 231.449 51.92C232.153 51.92 233.091 51.6267 234.265 51.04C235.497 50.3947 236.289 48.6053 236.641 45.672L244.913 48.224Z" fill="#FAEB92"/>
<path d="M284.991 48.048C284.698 51.568 282.967 54.6773 279.799 57.376C276.631 60.0747 272.202 61.424 266.511 61.424C260.586 61.424 255.687 59.752 251.815 56.408C248.002 53.064 246.095 48.0773 246.095 41.448C246.095 35.3467 247.826 30.272 251.287 26.224C254.807 22.1173 259.706 20.064 265.983 20.064C271.498 20.064 275.956 21.648 279.359 24.816C282.82 27.984 284.58 32.1493 284.639 37.312C284.639 39.248 284.434 41.1547 284.023 43.032H257.975C258.62 49.3093 261.73 52.448 267.303 52.448C270.354 52.448 272.407 51.7147 273.463 50.248C274.578 48.7813 275.252 47.4613 275.487 46.288L284.991 48.048ZM272.935 36.432C273.17 34.4373 272.73 32.56 271.615 30.8C270.559 29.04 268.682 28.16 265.983 28.16C263.636 28.16 261.818 28.9227 260.527 30.448C259.236 31.9733 258.415 33.968 258.063 36.432H272.935Z" fill="#FAEB92"/>
<path d="M314.418 20.328C315.533 20.328 316.765 20.504 318.114 20.856C319.522 21.1493 320.901 21.7067 322.25 22.528L324.01 36.432L315.386 37.4L313.89 30.624C312.717 29.92 311.69 29.568 310.81 29.568C309.519 29.568 308.375 30.0667 307.378 31.064C306.439 32.0613 305.97 33.528 305.97 35.464V52.008H313.01V60.544H289.338V52.008H294.618V29.48H288.898V20.856H305.09V28.424C305.735 26.136 306.762 24.2293 308.17 22.704C309.637 21.12 311.719 20.328 314.418 20.328Z" fill="#FAEB92"/>
<path d="M363.91 48.4C363.91 52.8 362.15 56.0853 358.63 58.256C355.169 60.368 350.651 61.424 345.078 61.424C342.203 61.424 339.299 61.1307 336.366 60.544C333.491 59.8987 330.734 58.9013 328.094 57.552L329.678 46.464L338.478 47.432V52.36C339.534 52.712 340.649 52.9467 341.822 53.064C342.995 53.1227 343.875 53.152 344.462 53.152C346.633 53.152 348.51 52.8 350.094 52.096C351.678 51.392 352.47 50.336 352.47 48.928C352.47 47.2267 351.267 46.112 348.862 45.584C346.457 45.056 343.67 44.528 340.502 44C337.334 43.472 334.547 42.3867 332.142 40.744C329.737 39.1013 328.534 36.3147 328.534 32.384C328.534 27.5147 330.411 24.2587 334.166 22.616C337.979 20.9147 341.91 20.064 345.958 20.064C351.238 20.064 356.195 21.2667 360.83 23.672L361.798 33.792L352.998 34.76L352.294 29.216C350.358 28.5707 348.275 28.248 346.046 28.248C344.579 28.248 343.318 28.5707 342.262 29.216C341.265 29.8027 340.766 30.7413 340.766 32.032C340.766 33.7333 341.91 34.8773 344.198 35.464C346.545 35.992 349.243 36.52 352.294 37.048C355.403 37.576 358.102 38.6613 360.39 40.304C362.737 41.888 363.91 44.5867 363.91 48.4Z" fill="#FAEB92"/>
<path d="M369.1 66.528H407.116V74.008H369.1V66.528Z" fill="#FAEB92"/>
<path d="M21.6959 24.9662L29.958 25.5439L29.22 36.0973L20.958 35.5196L21.6959 24.9662Z" fill="#FAEB92"/>
</svg>
